<svg id="visual" viewBox="0 0 900 600" width="900" height="600" xmlns="http://www.w3.org/2000/svg" xmlns:xlink="http://www.w3.org/1999/xlink" version="1.1"><rect x="0" y="0" width="900" height="600" fill="#002233"></rect><path d="M0 490L12.5 478.7C25 467.3 50 444.7 75 433.7C100 422.7 125 423.3 150 411.3C175 399.3 200 374.7 225 381.2C250 387.7 275 425.3 300 435.2C325 445 350 427 375 430.3C400 433.7 425 458.3 450 462.5C475 466.7 500 450.3 525 450.8C550 451.3 575 468.7 600 476.2C625 483.7 650 481.3 675 470.7C700 460 725 441 750 436.2C775 431.3 800 440.7 825 444.3C850 448 875 446 887.5 445L900 444L900 601L887.5 601C875 601 850 601 825 601C800 601 775 601 750 601C725 601 700 601 675 601C650 601 625 601 600 601C575 601 550 601 525 601C500 601 475 601 450 601C425 601 400 601 375 601C350 601 325 601 300 601C275 601 250 601 225 601C200 601 175 601 150 601C125 601 100 601 75 601C50 601 25 601 12.5 601L0 601Z" fill="#0066FF" stroke-linecap="round" stroke-linejoin="miter"></path></svg>